<svg width="48" height="48" viewBox="0 0 48 48" fill="none" xmlns="http://www.w3.org/2000/svg">
<path d="M8 24C8 15.1634 15.1634 8 24 8C32.8366 8 40 15.1634 40 24C40 32.8366 32.8366 40 24 40C15.1634 40 8 32.8366 8 24Z" fill="#EEEFF4"/>
<g clip-path="url(#clip0)">
<path d="M35.5969 22.7289L24.8289 12.9172C24.3562 12.4864 23.6435 12.4865 23.171 12.9171L12.403 22.729C12.0244 23.074 11.8993 23.6055 12.0843 24.0831C12.2693 24.5608 12.7198 24.8693 13.232 24.8693H14.9518V34.7C14.9518 35.0898 15.2678 35.4058 15.6576 35.4058H21.5598C21.9496 35.4058 22.2656 35.0898 22.2656 34.7V28.7311H25.7344V34.7C25.7344 35.0898 26.0505 35.4058 26.4402 35.4058H32.3422C32.7319 35.4058 33.048 35.0898 33.048 34.7V24.8693H34.7681C35.2803 24.8693 35.7308 24.5607 35.9158 24.0831C36.1006 23.6055 35.9755 23.074 35.5969 22.7289Z" fill="#184481"/>
<path d="M32.8635 14.003H28.1236L33.5693 18.9547V14.7087C33.5693 14.319 33.2533 14.003 32.8635 14.003Z" fill="#184481"/>
</g>
<defs>
<clipPath id="clip0">
<rect width="24" height="24" fill="white" transform="translate(12 12)"/>
</clipPath>
</defs>
</svg>
