<svg width="48" height="48" viewBox="0 0 48 48" fill="none" xmlns="http://www.w3.org/2000/svg">
<circle cx="24" cy="24" r="16" fill="#EEEFF4"/>
<g clip-path="url(#clip0)">
<g clip-path="url(#clip1)">
<path d="M15.3348 13.6019C14.8573 13.6019 14.4683 13.991 14.4683 14.4684V15.335C14.4683 15.8124 14.8573 16.2015 15.3348 16.2015H32.6649C33.1423 16.2015 33.5314 15.8124 33.5314 15.335V14.4684C33.5314 13.991 33.1423 13.6019 32.6649 13.6019H15.3348ZM15.3246 17.068C14.8472 17.068 14.4581 17.457 14.4581 17.9345V18.8297L12.9519 23.1335C12.9519 23.1335 12.9519 24 13.8184 24C14.1396 24 14.3411 23.8808 14.4683 23.7309V24.8665V33.5316C14.4683 34.009 14.8573 34.3981 15.3348 34.3981H17.0678H26.5993V26.5995H30.9319V34.3981H32.6649C33.1423 34.3981 33.5314 34.009 33.5314 33.5316V24.8665V23.7309C33.6586 23.8808 33.8601 24 34.1813 24C35.0478 24 35.0478 23.1335 35.0478 23.1335L33.5314 18.801V17.9345C33.5314 17.457 33.1423 17.068 32.6649 17.068H15.3246ZM15.6512 19.6675H17.7617L17.0678 23.1335C17.0678 23.7912 16.534 24.325 15.8763 24.325C15.2187 24.325 14.6849 23.7912 14.6849 23.1335L15.6512 19.6675ZM19.2983 19.6675H21.336L21.0754 23.1335V23.2418C21.0754 23.8995 20.5416 24.4333 19.8839 24.4333C19.2262 24.4333 18.6925 23.8995 18.6925 23.2418V23.1335L19.2983 19.6675ZM22.8947 19.6675H25.105L25.1913 23.1335V23.2418C25.1913 23.8995 24.6575 24.4333 23.9998 24.4333C23.3421 24.4333 22.8084 23.8995 22.8084 23.2418V23.1335L22.8947 19.6675ZM26.6636 19.6675H28.7013L29.3072 23.1335V23.2418C29.3072 23.8995 28.7734 24.4333 28.1157 24.4333C27.458 24.4333 26.9243 23.8995 26.9243 23.2418V23.1335L26.6636 19.6675ZM30.238 19.6675H32.2756L33.3148 23.1335V23.2418C33.3148 23.8995 32.781 24.4333 32.1233 24.4333C31.4656 24.4333 30.9319 23.8995 30.9319 23.2418V23.1335L30.238 19.6675ZM17.0678 26.5995H23.9998V31.7986H17.0678V26.5995Z" fill="#184481"/>
</g>
</g>
<ellipse cx="31.8207" cy="19.3363" rx="6.60089" ry="6.6009" fill="#EEEFF4"/>
<path fill-rule="evenodd" clip-rule="evenodd" d="M31.8205 25.037C30.3086 25.037 28.8585 24.4364 27.7894 23.3673C26.7203 22.2982 26.1197 20.8482 26.1197 19.3363C26.1197 17.8243 26.7203 16.3743 27.7894 15.3052C28.8585 14.2361 30.3086 13.6355 31.8205 13.6355C33.3324 13.6355 34.7824 14.2361 35.8516 15.3052C36.9207 16.3743 37.5213 17.8243 37.5213 19.3363C37.5213 20.8482 36.9207 22.2982 35.8516 23.3673C34.7824 24.4364 33.3324 25.037 31.8205 25.037ZM32.7925 17.2241L31.259 20.1529L30.1594 19.1624C30.0899 19.0998 30.0086 19.0515 29.9204 19.0203C29.8322 18.9891 29.7386 18.9756 29.6452 18.9805C29.5517 18.9854 29.4601 19.0087 29.3757 19.049C29.2912 19.0893 29.2155 19.1459 29.1529 19.2155C29.0903 19.2851 29.042 19.3663 29.0108 19.4545C28.9796 19.5428 28.966 19.6363 28.971 19.7298C28.9759 19.8232 28.9992 19.9148 29.0395 19.9993C29.0798 20.0837 29.1364 20.1594 29.206 20.222L30.9875 21.8254C31.0682 21.8981 31.1645 21.9513 31.2689 21.9811C31.3734 22.0109 31.4833 22.0164 31.5902 21.9973C31.6971 21.9781 31.7982 21.9347 31.8858 21.8705C31.9734 21.8062 32.0451 21.7228 32.0956 21.6266L34.0552 17.8854C34.1429 17.718 34.1605 17.5226 34.1041 17.3421C34.0477 17.1617 33.9219 17.0111 33.7545 16.9234C33.587 16.8357 33.3916 16.8181 33.2112 16.8745C33.0308 16.9309 32.8802 17.0567 32.7925 17.2241Z" fill="#159749"/>
<defs>
<clipPath id="clip0">
<rect width="22.5291" height="22.5291" fill="white" transform="translate(12.7353 12.7354)"/>
</clipPath>
<clipPath id="clip1">
<rect width="22.5291" height="22.5291" fill="white" transform="translate(12.7353 12.7354)"/>
</clipPath>
</defs>
</svg>
