<svg width="48" height="48" viewBox="0 0 48 48" fill="none" xmlns="http://www.w3.org/2000/svg">
<circle cx="24" cy="24" r="16" fill="#EEEFF4"/>
<g clip-path="url(#clip0)">
<g clip-path="url(#clip1)">
<path d="M15.3348 13.602C14.8573 13.602 14.4683 13.9911 14.4683 14.4685V15.335C14.4683 15.8124 14.8573 16.2015 15.3348 16.2015H32.6649C33.1423 16.2015 33.5314 15.8124 33.5314 15.335V14.4685C33.5314 13.9911 33.1423 13.602 32.6649 13.602H15.3348ZM15.3246 17.068C14.8472 17.068 14.4581 17.4571 14.4581 17.9345V18.8298L12.9519 23.1335C12.9519 23.1335 12.9519 24.0001 13.8184 24.0001C14.1396 24.0001 14.3411 23.8808 14.4683 23.731V24.8666V33.5316C14.4683 34.0091 14.8573 34.3981 15.3348 34.3981H17.0678H26.5993V26.5996H30.9319V34.3981H32.6649C33.1423 34.3981 33.5314 34.0091 33.5314 33.5316V24.8666V23.731C33.6586 23.8808 33.8601 24.0001 34.1813 24.0001C35.0478 24.0001 35.0478 23.1335 35.0478 23.1335L33.5314 18.801V17.9345C33.5314 17.4571 33.1423 17.068 32.6649 17.068H15.3246ZM15.6512 19.6675H17.7617L17.0678 23.1335C17.0678 23.7912 16.534 24.325 15.8763 24.325C15.2187 24.325 14.6849 23.7912 14.6849 23.1335L15.6512 19.6675ZM19.2983 19.6675H21.336L21.0754 23.1335V23.2419C21.0754 23.8995 20.5416 24.4333 19.8839 24.4333C19.2262 24.4333 18.6925 23.8995 18.6925 23.2419V23.1335L19.2983 19.6675ZM22.8947 19.6675H25.105L25.1913 23.1335V23.2419C25.1913 23.8995 24.6575 24.4333 23.9998 24.4333C23.3421 24.4333 22.8084 23.8995 22.8084 23.2419V23.1335L22.8947 19.6675ZM26.6636 19.6675H28.7013L29.3072 23.1335V23.2419C29.3072 23.8995 28.7734 24.4333 28.1157 24.4333C27.458 24.4333 26.9243 23.8995 26.9243 23.2419V23.1335L26.6636 19.6675ZM30.238 19.6675H32.2756L33.3148 23.1335V23.2419C33.3148 23.8995 32.781 24.4333 32.1233 24.4333C31.4656 24.4333 30.9319 23.8995 30.9319 23.2419V23.1335L30.238 19.6675ZM17.0678 26.5996H23.9998V31.7986H17.0678V26.5996Z" fill="#184481"/>
</g>
</g>
<ellipse cx="31.8207" cy="19.3364" rx="6.60089" ry="6.6009" fill="#EEEFF4"/>
<circle cx="31.8204" cy="19.3363" r="5.73991" fill="#E63A26"/>
<path d="M32.0396 15.6053C31.8808 15.6199 31.7637 15.7611 31.7783 15.9192C31.7929 16.0773 31.9349 16.1939 32.0937 16.1793C33.3743 16.1793 34.4004 17.1872 34.4004 18.4753C34.3993 18.5784 34.4533 18.6748 34.5435 18.7275C34.6336 18.7791 34.7439 18.7791 34.834 18.7275C34.9242 18.6748 34.9782 18.5784 34.9771 18.4753C34.9771 16.8811 33.6818 15.6053 32.0937 15.6053C32.0847 15.6053 32.0757 15.6053 32.0666 15.6053C32.0576 15.6053 32.0486 15.6053 32.0396 15.6053ZM32.0396 16.7533C31.8808 16.7679 31.7637 16.9091 31.7783 17.0672C31.7929 17.2253 31.9349 17.3419 32.0937 17.3273C32.5532 17.3273 32.8235 17.4248 32.9857 17.5874C33.1479 17.7499 33.247 18.019 33.247 18.4753C33.2459 18.5784 33.3 18.6748 33.3901 18.7275C33.4802 18.7791 33.5906 18.7791 33.6807 18.7275C33.7708 18.6748 33.8248 18.5784 33.8237 18.4753C33.8237 17.936 33.6987 17.4898 33.3912 17.1838C33.0837 16.8777 32.6377 16.7533 32.0937 16.7533C32.0847 16.7533 32.0757 16.7533 32.0666 16.7533C32.0576 16.7533 32.0486 16.7533 32.0396 16.7533ZM29.9942 17.0762C29.7317 17.075 29.5099 17.1457 29.3544 17.3004C28.8172 17.8351 28.0152 19.4472 29.5707 20.9955C30.9932 22.4114 32.7458 21.7454 33.2831 21.2107C33.7111 20.7847 33.5162 19.871 32.8686 18.9685C32.7469 19.0661 32.6028 19.3934 32.6704 19.5067C32.9902 20.0448 33.0826 20.5224 32.8596 20.7443C32.516 21.0863 31.5542 20.6916 30.715 19.8564C29.8759 19.0212 29.4783 18.065 29.823 17.7219C30.0336 17.5123 30.4717 17.5784 30.9763 17.8564C31.0946 17.9215 31.4291 17.7813 31.526 17.6591C30.9752 17.2847 30.4312 17.0784 29.9942 17.0762ZM32.0937 17.9013C31.838 17.9013 31.6195 18.0661 31.544 18.2959L30.7691 18.3856C30.6756 18.3822 30.5878 18.4338 30.5461 18.5179C30.5044 18.6008 30.5157 18.7017 30.5754 18.7735C30.6362 18.8463 30.7331 18.8766 30.8232 18.852L31.5981 18.7712C31.6476 18.8531 31.7141 18.9192 31.7963 18.9685L31.7152 19.7398C31.6904 19.8295 31.7209 19.9259 31.7941 19.9865C31.8662 20.0459 31.9675 20.0571 32.0509 20.0156C32.1353 19.9741 32.1872 19.8867 32.1838 19.7937L32.2739 19.0224C32.5048 18.9472 32.6704 18.7298 32.6704 18.4753C32.6704 18.158 32.4124 17.9013 32.0937 17.9013ZM30.0933 21.9372C29.6045 22.1602 29.2733 22.5818 29.2733 23.0672H32.6433C32.6433 22.7679 32.4248 22.4181 32.1567 22.269C31.9732 22.3015 31.7772 22.3228 31.5801 22.3228C31.0541 22.3228 30.5528 22.1928 30.0933 21.9372Z" fill="#EEEFF4"/>
<defs>
<clipPath id="clip0">
<rect width="22.5291" height="22.5291" fill="white" transform="translate(12.7353 12.7355)"/>
</clipPath>
<clipPath id="clip1">
<rect width="22.5291" height="22.5291" fill="white" transform="translate(12.7353 12.7355)"/>
</clipPath>
</defs>
</svg>
